<svg xmlns="http://www.w3.org/2000/svg" width="2000" height="2000" viewBox="0 0 1500 1500"><path fill="#a51c30" d="M1354.242 1465.55 853.355 964.665q-59.629 47.7-137.148 75.531c-51.68 18.551-106.668 27.825-164.973 27.825-144.437 0-266.675-50.02-366.722-150.067Q34.446 767.887 34.445 551.234c0-144.437 50.024-266.675 150.067-366.722Q334.58 34.446 551.234 34.445q216.652.001 366.72 150.067 150.068 150.069 150.066 366.722 0 87.452-27.825 164.973-27.83 77.52-75.53 137.148l500.886 500.887ZM551.234 909.009c99.38 0 183.856-34.781 253.422-104.352 69.57-69.566 104.352-154.043 104.352-253.422 0-99.382-34.781-183.859-104.352-253.425-69.566-69.567-154.043-104.352-253.422-104.352q-149.075 0-253.425 104.352-104.351 104.35-104.352 253.425 0 149.072 104.352 253.422 104.35 104.354 253.425 104.352m0 0"/></svg>