<svg xmlns="http://www.w3.org/2000/svg" xmlns:xlink="http://www.w3.org/1999/xlink" width="2000" zoomAndPan="magnify" viewBox="0 0 1500 1499.999933" height="2000" preserveAspectRatio="xMidYMid meet" version="1.0"><path fill="#a51c30" d="M 507.1875 1386.878906 L 65.234375 944.921875 C 54.167969 933.761719 45.871094 921.492188 40.351562 908.113281 C 34.816406 894.738281 32.050781 880.855469 32.050781 866.472656 C 32.050781 852.097656 34.816406 838.277344 40.351562 825.007812 C 45.871094 811.734375 54.167969 799.574219 65.234375 788.515625 L 497.714844 356.621094 L 299.84375 158.734375 L 387.519531 69.28125 L 1105.566406 788.515625 C 1117 799.574219 1125.289062 811.734375 1130.429688 825.007812 C 1135.574219 838.277344 1138.144531 852.097656 1138.144531 866.472656 C 1138.144531 880.855469 1135.574219 894.738281 1130.429688 908.113281 C 1125.289062 921.492188 1117 933.761719 1105.566406 944.921875 L 663.59375 1386.878906 C 652.539062 1397.945312 640.375 1406.238281 627.105469 1411.761719 C 613.835938 1417.292969 600.011719 1420.0625 585.640625 1420.0625 C 571.253906 1420.0625 557.375 1417.292969 543.996094 1411.761719 C 530.617188 1406.238281 518.347656 1397.945312 507.1875 1386.878906 Z M 585.996094 444.886719 L 162.988281 867.894531 L 1009.003906 867.894531 Z M 1306.582031 1420.0625 C 1266.023438 1420.0625 1231.664062 1405.871094 1203.496094 1377.492188 C 1175.332031 1349.101562 1161.25 1314.316406 1161.25 1273.128906 C 1161.25 1241.703125 1167.867188 1212.027344 1181.101562 1184.101562 C 1194.339844 1156.171875 1210.628906 1129.765625 1229.980469 1104.882812 L 1306.992188 1005.351562 L 1385.195312 1104.882812 C 1403.371094 1129.765625 1419.367188 1156.171875 1433.183594 1184.101562 C 1447.011719 1212.027344 1453.925781 1241.703125 1453.925781 1273.128906 C 1453.925781 1314.316406 1439.511719 1349.101562 1410.683594 1377.492188 C 1381.84375 1405.871094 1347.140625 1420.0625 1306.582031 1420.0625 Z M 1306.582031 1420.0625 " fill-opacity="1" fill-rule="nonzero"/></svg>