<svg xmlns="http://www.w3.org/2000/svg" xmlns:xlink="http://www.w3.org/1999/xlink" width="2000" zoomAndPan="magnify" viewBox="0 0 1500 1499.999933" height="2000" preserveAspectRatio="xMidYMid meet" version="1.0"><path fill="#a51c30" d="M 570.203125 1186.035156 C 530.382812 1186.035156 496.292969 1171.855469 467.933594 1143.5 C 439.578125 1115.140625 425.398438 1081.050781 425.398438 1041.230469 L 425.398438 172.390625 C 425.398438 132.566406 439.578125 98.476562 467.933594 70.121094 C 496.292969 41.761719 530.382812 27.582031 570.203125 27.582031 L 1221.832031 27.582031 C 1261.65625 27.582031 1295.746094 41.761719 1324.105469 70.121094 C 1352.460938 98.476562 1366.640625 132.566406 1366.640625 172.390625 L 1366.640625 1041.230469 C 1366.640625 1081.050781 1352.460938 1115.140625 1324.105469 1143.5 C 1295.746094 1171.855469 1261.65625 1186.035156 1221.832031 1186.035156 Z M 570.203125 1041.230469 L 1221.832031 1041.230469 L 1221.832031 172.390625 L 570.203125 172.390625 Z M 280.589844 1475.648438 C 240.769531 1475.648438 206.679688 1461.46875 178.320312 1433.113281 C 149.964844 1404.753906 135.785156 1370.664062 135.785156 1330.84375 L 135.785156 317.195312 L 280.589844 317.195312 L 280.589844 1330.84375 L 1077.027344 1330.84375 L 1077.027344 1475.648438 Z M 570.203125 1041.230469 L 570.203125 172.390625 Z M 570.203125 1041.230469 " fill-opacity="1" fill-rule="nonzero"/></svg>