<svg xmlns="http://www.w3.org/2000/svg" xmlns:xlink="http://www.w3.org/1999/xlink" width="2000" zoomAndPan="magnify" viewBox="0 0 1500 1499.999933" height="2000" preserveAspectRatio="xMidYMid meet" version="1.0"><path fill="#a51c30" d="M 247.9375 1445.675781 C 189.96875 1445.675781 140.695312 1425.386719 100.117188 1384.808594 C 59.539062 1344.230469 39.25 1294.957031 39.25 1236.988281 C 39.25 1189.457031 53.453125 1147.429688 81.859375 1110.90625 C 110.261719 1074.386719 146.300781 1049.75 189.976562 1036.996094 L 189.976562 463.105469 C 146.300781 450.355469 110.261719 425.71875 81.859375 389.195312 C 53.453125 352.675781 39.25 310.648438 39.25 263.113281 C 39.25 205.144531 59.539062 155.871094 100.117188 115.292969 C 140.695312 74.714844 189.96875 54.425781 247.9375 54.425781 C 295.472656 54.425781 337.5 68.628906 374.019531 97.035156 C 410.539062 125.4375 435.175781 161.476562 447.929688 205.152344 L 1021.820312 205.152344 C 1034.191406 161.476562 1058.636719 125.4375 1095.15625 97.035156 C 1131.6875 68.628906 1173.90625 54.425781 1221.8125 54.425781 C 1279.78125 54.425781 1329.054688 74.714844 1369.632812 115.292969 C 1410.210938 155.871094 1430.5 205.144531 1430.5 263.113281 C 1430.5 311.019531 1416.296875 353.238281 1387.894531 389.769531 C 1359.488281 426.289062 1323.449219 450.734375 1279.777344 463.105469 L 1279.777344 1036.996094 C 1323.449219 1049.75 1359.488281 1074.386719 1387.894531 1110.90625 C 1416.296875 1147.429688 1430.5 1189.457031 1430.5 1236.988281 C 1430.5 1294.957031 1410.210938 1344.230469 1369.632812 1384.808594 C 1329.054688 1425.386719 1279.78125 1445.675781 1221.8125 1445.675781 C 1174.277344 1445.675781 1132.25 1431.472656 1095.730469 1403.070312 C 1059.210938 1374.664062 1034.574219 1338.625 1021.820312 1294.953125 L 447.929688 1294.953125 C 435.175781 1338.625 410.539062 1374.664062 374.019531 1403.070312 C 337.5 1431.472656 295.472656 1445.675781 247.9375 1445.675781 Z M 247.9375 355.859375 C 274.222656 355.859375 296.25 346.972656 314.023438 329.199219 C 331.796875 311.425781 340.683594 289.398438 340.683594 263.113281 C 340.683594 236.832031 331.796875 214.804688 314.023438 197.03125 C 296.25 179.257812 274.222656 170.371094 247.9375 170.371094 C 221.65625 170.371094 199.628906 179.257812 181.855469 197.03125 C 164.082031 214.804688 155.195312 236.832031 155.195312 263.113281 C 155.195312 289.398438 164.082031 311.425781 181.855469 329.199219 C 199.628906 346.972656 221.65625 355.859375 247.9375 355.859375 Z M 1221.8125 355.859375 C 1248.097656 355.859375 1270.125 346.972656 1287.898438 329.199219 C 1305.671875 311.425781 1314.558594 289.398438 1314.558594 263.113281 C 1314.558594 236.832031 1305.671875 214.804688 1287.898438 197.03125 C 1270.125 179.257812 1248.097656 170.371094 1221.8125 170.371094 C 1195.53125 170.371094 1173.503906 179.257812 1155.730469 197.03125 C 1137.957031 214.804688 1129.070312 236.832031 1129.070312 263.113281 C 1129.070312 289.398438 1137.957031 311.425781 1155.730469 329.199219 C 1173.503906 346.972656 1195.53125 355.859375 1221.8125 355.859375 Z M 447.929688 1179.027344 L 1021.820312 1179.027344 C 1031.480469 1144.246094 1048.871094 1114.292969 1073.992188 1089.167969 C 1099.117188 1064.046875 1129.070312 1046.65625 1163.851562 1036.996094 L 1163.851562 463.105469 C 1129.070312 453.449219 1099.117188 436.058594 1073.992188 410.933594 C 1048.871094 385.8125 1031.480469 355.859375 1021.820312 321.078125 L 447.929688 321.078125 C 438.273438 355.859375 420.882812 385.8125 395.757812 410.933594 C 370.636719 436.058594 340.683594 453.449219 305.902344 463.105469 L 305.902344 1036.996094 C 340.683594 1046.65625 370.636719 1064.046875 395.757812 1089.167969 C 420.882812 1114.292969 438.273438 1144.246094 447.929688 1179.027344 Z M 1221.8125 1329.734375 C 1248.097656 1329.734375 1270.125 1320.847656 1287.898438 1303.074219 C 1305.671875 1285.300781 1314.558594 1263.273438 1314.558594 1236.988281 C 1314.558594 1210.707031 1305.671875 1188.679688 1287.898438 1170.90625 C 1270.125 1153.132812 1248.097656 1144.246094 1221.8125 1144.246094 C 1195.53125 1144.246094 1173.503906 1153.132812 1155.730469 1170.90625 C 1137.957031 1188.679688 1129.070312 1210.707031 1129.070312 1236.988281 C 1129.070312 1263.273438 1137.957031 1285.300781 1155.730469 1303.074219 C 1173.503906 1320.847656 1195.53125 1329.734375 1221.8125 1329.734375 Z M 247.9375 1329.734375 C 274.222656 1329.734375 296.25 1320.847656 314.023438 1303.074219 C 331.796875 1285.300781 340.683594 1263.273438 340.683594 1236.988281 C 340.683594 1210.707031 331.796875 1188.679688 314.023438 1170.90625 C 296.25 1153.132812 274.222656 1144.246094 247.9375 1144.246094 C 221.65625 1144.246094 199.628906 1153.132812 181.855469 1170.90625 C 164.082031 1188.679688 155.195312 1210.707031 155.195312 1236.988281 C 155.195312 1263.273438 164.082031 1285.300781 181.855469 1303.074219 C 199.628906 1320.847656 221.65625 1329.734375 247.9375 1329.734375 Z M 247.9375 263.113281 Z M 1221.8125 263.113281 Z M 1221.8125 1236.988281 Z M 247.9375 1236.988281 Z M 247.9375 1236.988281 " fill-opacity="1" fill-rule="nonzero"/></svg>