<svg xmlns="http://www.w3.org/2000/svg" xmlns:xlink="http://www.w3.org/1999/xlink" width="2000" zoomAndPan="magnify" viewBox="0 0 1500 1499.999933" height="2000" preserveAspectRatio="xMidYMid meet" version="1.0"><path fill="#a51c30" d="M 674.695312 1111.675781 L 818.457031 1111.675781 L 818.457031 680.394531 L 674.695312 680.394531 Z M 797.792969 515.96875 C 811.570312 502.191406 818.457031 485.117188 818.457031 464.753906 C 818.457031 444.386719 811.570312 427.316406 797.792969 413.539062 C 784.015625 399.761719 766.941406 392.871094 746.578125 392.871094 C 726.210938 392.871094 709.140625 399.761719 695.363281 413.539062 C 681.585938 427.316406 674.695312 444.386719 674.695312 464.753906 C 674.695312 485.117188 681.585938 502.191406 695.363281 515.96875 C 709.140625 529.746094 726.210938 536.632812 746.578125 536.632812 C 766.941406 536.632812 784.015625 529.746094 797.792969 515.96875 Z M 746.578125 1471.078125 C 647.140625 1471.078125 553.699219 1452.210938 466.242188 1414.472656 C 378.789062 1376.734375 302.714844 1325.519531 238.023438 1260.828125 C 173.332031 1196.136719 122.117188 1120.0625 84.378906 1032.609375 C 46.640625 945.152344 27.773438 851.707031 27.773438 752.273438 C 27.773438 652.839844 46.640625 559.394531 84.378906 471.941406 C 122.117188 384.488281 173.332031 308.414062 238.023438 243.722656 C 302.714844 179.027344 378.789062 127.8125 466.242188 90.078125 C 553.699219 52.339844 647.140625 33.472656 746.578125 33.472656 C 846.011719 33.472656 939.457031 52.339844 1026.910156 90.078125 C 1114.363281 127.8125 1190.4375 179.027344 1255.128906 243.722656 C 1319.824219 308.414062 1371.039062 384.488281 1408.773438 471.941406 C 1446.511719 559.394531 1465.378906 652.839844 1465.378906 752.273438 C 1465.378906 851.707031 1446.511719 945.152344 1408.773438 1032.609375 C 1371.039062 1120.0625 1319.824219 1196.136719 1255.128906 1260.828125 C 1190.4375 1325.519531 1114.363281 1376.734375 1026.910156 1414.472656 C 939.457031 1452.210938 846.011719 1471.078125 746.578125 1471.078125 Z M 746.578125 1327.316406 C 907.109375 1327.316406 1043.082031 1271.609375 1154.5 1160.195312 C 1265.914062 1048.78125 1321.621094 912.808594 1321.621094 752.273438 C 1321.621094 591.742188 1265.914062 455.769531 1154.5 344.351562 C 1043.082031 232.9375 907.109375 177.230469 746.578125 177.230469 C 586.042969 177.230469 450.070312 232.9375 338.65625 344.351562 C 227.242188 455.769531 171.535156 591.742188 171.535156 752.273438 C 171.535156 912.808594 227.242188 1048.78125 338.65625 1160.195312 C 450.070312 1271.609375 586.042969 1327.316406 746.578125 1327.316406 Z M 746.578125 752.273438 Z M 746.578125 752.273438 " fill-opacity="1" fill-rule="nonzero"/></svg>