<svg xmlns="http://www.w3.org/2000/svg" xmlns:xlink="http://www.w3.org/1999/xlink" width="2000" zoomAndPan="magnify" viewBox="0 0 1500 1499.999933" height="2000" preserveAspectRatio="xMidYMid meet" version="1.0"><defs><clipPath id="7f9b310c63"><path d="M 26.050781 33.636719 L 488.503906 33.636719 L 488.503906 1467 L 26.050781 1467 Z M 26.050781 33.636719 " clip-rule="nonzero"/></clipPath><clipPath id="d5c033ff41"><path d="M 96.550781 33.636719 L 418.003906 33.636719 C 456.9375 33.636719 488.503906 65.199219 488.503906 104.136719 L 488.503906 1395.863281 C 488.503906 1434.800781 456.9375 1466.363281 418.003906 1466.363281 L 96.550781 1466.363281 C 57.613281 1466.363281 26.050781 1434.800781 26.050781 1395.863281 L 26.050781 104.136719 C 26.050781 65.199219 57.613281 33.636719 96.550781 33.636719 Z M 96.550781 33.636719 " clip-rule="nonzero"/></clipPath><clipPath id="76deef5ca5"><path d="M 0.0507812 0.636719 L 462.503906 0.636719 L 462.503906 1433.398438 L 0.0507812 1433.398438 Z M 0.0507812 0.636719 " clip-rule="nonzero"/></clipPath><clipPath id="11d44712c5"><path d="M 70.550781 0.636719 L 392.003906 0.636719 C 430.9375 0.636719 462.503906 32.199219 462.503906 71.136719 L 462.503906 1362.863281 C 462.503906 1401.800781 430.9375 1433.363281 392.003906 1433.363281 L 70.550781 1433.363281 C 31.613281 1433.363281 0.0507812 1401.800781 0.0507812 1362.863281 L 0.0507812 71.136719 C 0.0507812 32.199219 31.613281 0.636719 70.550781 0.636719 Z M 70.550781 0.636719 " clip-rule="nonzero"/></clipPath><clipPath id="f188bc0892"><rect x="0" width="463" y="0" height="1434"/></clipPath><clipPath id="41a16bc5de"><path d="M 26.054688 33.628906 L 1474 33.628906 L 1474 505.113281 L 26.054688 505.113281 Z M 26.054688 33.628906 " clip-rule="nonzero"/></clipPath><clipPath id="8b31de2389"><path d="M 26.054688 434.613281 L 26.054688 104.128906 C 26.054688 65.191406 57.617188 33.628906 96.554688 33.628906 L 1403.3125 33.628906 C 1442.246094 33.628906 1473.8125 65.191406 1473.8125 104.128906 L 1473.8125 434.613281 C 1473.8125 473.550781 1442.246094 505.113281 1403.3125 505.113281 L 96.554688 505.113281 C 57.617188 505.113281 26.054688 473.550781 26.054688 434.613281 Z M 26.054688 434.613281 " clip-rule="nonzero"/></clipPath><clipPath id="bdc2e69b7e"><path d="M 0.0546875 0.628906 L 1447.839844 0.628906 L 1447.839844 472.113281 L 0.0546875 472.113281 Z M 0.0546875 0.628906 " clip-rule="nonzero"/></clipPath><clipPath id="97023c3365"><path d="M 0.0546875 401.613281 L 0.0546875 71.128906 C 0.0546875 32.191406 31.617188 0.628906 70.554688 0.628906 L 1377.3125 0.628906 C 1416.246094 0.628906 1447.8125 32.191406 1447.8125 71.128906 L 1447.8125 401.613281 C 1447.8125 440.550781 1416.246094 472.113281 1377.3125 472.113281 L 70.554688 472.113281 C 31.617188 472.113281 0.0546875 440.550781 0.0546875 401.613281 Z M 0.0546875 401.613281 " clip-rule="nonzero"/></clipPath><clipPath id="c7a6650230"><rect x="0" width="1448" y="0" height="473"/></clipPath><clipPath id="42de27cd17"><path d="M 518.84375 538.132812 L 981.296875 538.132812 L 981.296875 1466.648438 L 518.84375 1466.648438 Z M 518.84375 538.132812 " clip-rule="nonzero"/></clipPath><clipPath id="d3704c8f2a"><path d="M 589.34375 538.132812 L 910.796875 538.132812 C 949.734375 538.132812 981.296875 569.695312 981.296875 608.632812 L 981.296875 1395.863281 C 981.296875 1434.800781 949.734375 1466.363281 910.796875 1466.363281 L 589.34375 1466.363281 C 550.410156 1466.363281 518.84375 1434.800781 518.84375 1395.863281 L 518.84375 608.632812 C 518.84375 569.695312 550.410156 538.132812 589.34375 538.132812 Z M 589.34375 538.132812 " clip-rule="nonzero"/></clipPath><clipPath id="d04435698c"><path d="M 0.84375 0.132812 L 463.296875 0.132812 L 463.296875 928.398438 L 0.84375 928.398438 Z M 0.84375 0.132812 " clip-rule="nonzero"/></clipPath><clipPath id="17a3d3205b"><path d="M 71.34375 0.132812 L 392.796875 0.132812 C 431.734375 0.132812 463.296875 31.695312 463.296875 70.632812 L 463.296875 857.863281 C 463.296875 896.800781 431.734375 928.363281 392.796875 928.363281 L 71.34375 928.363281 C 32.410156 928.363281 0.84375 896.800781 0.84375 857.863281 L 0.84375 70.632812 C 0.84375 31.695312 32.410156 0.132812 71.34375 0.132812 Z M 71.34375 0.132812 " clip-rule="nonzero"/></clipPath><clipPath id="94ed194843"><rect x="0" width="464" y="0" height="929"/></clipPath><clipPath id="8e805bf52b"><path d="M 1011.355469 538.132812 L 1473.808594 538.132812 L 1473.808594 1466.648438 L 1011.355469 1466.648438 Z M 1011.355469 538.132812 " clip-rule="nonzero"/></clipPath><clipPath id="5e5f4780e1"><path d="M 1081.855469 538.132812 L 1403.308594 538.132812 C 1442.246094 538.132812 1473.808594 569.695312 1473.808594 608.632812 L 1473.808594 1395.863281 C 1473.808594 1434.800781 1442.246094 1466.363281 1403.308594 1466.363281 L 1081.855469 1466.363281 C 1042.921875 1466.363281 1011.355469 1434.800781 1011.355469 1395.863281 L 1011.355469 608.632812 C 1011.355469 569.695312 1042.921875 538.132812 1081.855469 538.132812 Z M 1081.855469 538.132812 " clip-rule="nonzero"/></clipPath><clipPath id="c22a8c9be0"><path d="M 0.355469 0.132812 L 462.808594 0.132812 L 462.808594 928.398438 L 0.355469 928.398438 Z M 0.355469 0.132812 " clip-rule="nonzero"/></clipPath><clipPath id="98066ee2a8"><path d="M 70.855469 0.132812 L 392.308594 0.132812 C 431.246094 0.132812 462.808594 31.695312 462.808594 70.632812 L 462.808594 857.863281 C 462.808594 896.800781 431.246094 928.363281 392.308594 928.363281 L 70.855469 928.363281 C 31.921875 928.363281 0.355469 896.800781 0.355469 857.863281 L 0.355469 70.632812 C 0.355469 31.695312 31.921875 0.132812 70.855469 0.132812 Z M 70.855469 0.132812 " clip-rule="nonzero"/></clipPath><clipPath id="22ef45da99"><rect x="0" width="463" y="0" height="929"/></clipPath><clipPath id="29f35afe95"><path d="M 0.191406 0.636719 L 462.644531 0.636719 L 462.644531 1434 L 0.191406 1434 Z M 0.191406 0.636719 " clip-rule="nonzero"/></clipPath><clipPath id="b42a1b8403"><path d="M 75.191406 0.636719 L 387.644531 0.636719 C 429.066406 0.636719 462.644531 34.214844 462.644531 75.636719 L 462.644531 1358.363281 C 462.644531 1399.785156 429.066406 1433.363281 387.644531 1433.363281 L 75.191406 1433.363281 C 33.769531 1433.363281 0.191406 1399.785156 0.191406 1358.363281 L 0.191406 75.636719 C 0.191406 34.214844 33.769531 0.636719 75.191406 0.636719 Z M 75.191406 0.636719 " clip-rule="nonzero"/></clipPath><clipPath id="482070884c"><path d="M 0.191406 0.636719 L 462.644531 0.636719 L 462.644531 1433.398438 L 0.191406 1433.398438 Z M 0.191406 0.636719 " clip-rule="nonzero"/></clipPath><clipPath id="bf922010e4"><path d="M 75.191406 0.636719 L 387.644531 0.636719 C 429.066406 0.636719 462.644531 34.214844 462.644531 75.636719 L 462.644531 1358.363281 C 462.644531 1399.785156 429.066406 1433.363281 387.644531 1433.363281 L 75.191406 1433.363281 C 33.769531 1433.363281 0.191406 1399.785156 0.191406 1358.363281 L 0.191406 75.636719 C 0.191406 34.214844 33.769531 0.636719 75.191406 0.636719 Z M 75.191406 0.636719 " clip-rule="nonzero"/></clipPath><clipPath id="3b0a584111"><rect x="0" width="463" y="0" height="1434"/></clipPath><clipPath id="2c931588e4"><path d="M 0.195312 0.632812 L 1448 0.632812 L 1448 472.121094 L 0.195312 472.121094 Z M 0.195312 0.632812 " clip-rule="nonzero"/></clipPath><clipPath id="7ed697cb90"><path d="M 0.195312 397.121094 L 0.195312 75.632812 C 0.195312 34.214844 33.773438 0.632812 75.195312 0.632812 L 1372.953125 0.632812 C 1414.375 0.632812 1447.953125 34.214844 1447.953125 75.632812 L 1447.953125 397.121094 C 1447.953125 438.542969 1414.375 472.121094 1372.953125 472.121094 L 75.195312 472.121094 C 33.773438 472.121094 0.195312 438.542969 0.195312 397.121094 Z M 0.195312 397.121094 " clip-rule="nonzero"/></clipPath><clipPath id="e53d6bf94e"><path d="M 0.195312 0.632812 L 1448 0.632812 L 1448 472.121094 L 0.195312 472.121094 Z M 0.195312 0.632812 " clip-rule="nonzero"/></clipPath><clipPath id="f9440b74f6"><path d="M 0.195312 397.121094 L 0.195312 75.632812 C 0.195312 34.214844 33.773438 0.632812 75.195312 0.632812 L 1372.953125 0.632812 C 1414.375 0.632812 1447.953125 34.214844 1447.953125 75.632812 L 1447.953125 397.121094 C 1447.953125 438.542969 1414.375 472.121094 1372.953125 472.121094 L 75.195312 472.121094 C 33.773438 472.121094 0.195312 438.542969 0.195312 397.121094 Z M 0.195312 397.121094 " clip-rule="nonzero"/></clipPath><clipPath id="414eaac871"><rect x="0" width="1448" y="0" height="473"/></clipPath><clipPath id="34c10833f1"><path d="M 492.984375 505.132812 L 955.4375 505.132812 L 955.4375 1433.648438 L 492.984375 1433.648438 Z M 492.984375 505.132812 " clip-rule="nonzero"/></clipPath><clipPath id="1d3e25c0d6"><path d="M 567.984375 505.132812 L 880.4375 505.132812 C 921.859375 505.132812 955.4375 538.710938 955.4375 580.132812 L 955.4375 1358.363281 C 955.4375 1399.785156 921.859375 1433.363281 880.4375 1433.363281 L 567.984375 1433.363281 C 526.5625 1433.363281 492.984375 1399.785156 492.984375 1358.363281 L 492.984375 580.132812 C 492.984375 538.710938 526.5625 505.132812 567.984375 505.132812 Z M 567.984375 505.132812 " clip-rule="nonzero"/></clipPath><clipPath id="f163fb8d6f"><path d="M 0.984375 0.132812 L 463.4375 0.132812 L 463.4375 928.398438 L 0.984375 928.398438 Z M 0.984375 0.132812 " clip-rule="nonzero"/></clipPath><clipPath id="eefd1ca532"><path d="M 75.984375 0.132812 L 388.4375 0.132812 C 429.859375 0.132812 463.4375 33.710938 463.4375 75.132812 L 463.4375 853.363281 C 463.4375 894.785156 429.859375 928.363281 388.4375 928.363281 L 75.984375 928.363281 C 34.5625 928.363281 0.984375 894.785156 0.984375 853.363281 L 0.984375 75.132812 C 0.984375 33.710938 34.5625 0.132812 75.984375 0.132812 Z M 75.984375 0.132812 " clip-rule="nonzero"/></clipPath><clipPath id="f2fd6161e9"><rect x="0" width="464" y="0" height="929"/></clipPath><clipPath id="f038bc59a7"><path d="M 985.496094 505.132812 L 1447.949219 505.132812 L 1447.949219 1433.648438 L 985.496094 1433.648438 Z M 985.496094 505.132812 " clip-rule="nonzero"/></clipPath><clipPath id="17d4ad5350"><path d="M 1060.496094 505.132812 L 1372.949219 505.132812 C 1414.371094 505.132812 1447.949219 538.710938 1447.949219 580.132812 L 1447.949219 1358.363281 C 1447.949219 1399.785156 1414.371094 1433.363281 1372.949219 1433.363281 L 1060.496094 1433.363281 C 1019.074219 1433.363281 985.496094 1399.785156 985.496094 1358.363281 L 985.496094 580.132812 C 985.496094 538.710938 1019.074219 505.132812 1060.496094 505.132812 Z M 1060.496094 505.132812 " clip-rule="nonzero"/></clipPath><clipPath id="018340af0d"><path d="M 0.496094 0.132812 L 462.949219 0.132812 L 462.949219 928.398438 L 0.496094 928.398438 Z M 0.496094 0.132812 " clip-rule="nonzero"/></clipPath><clipPath id="08e54552d6"><path d="M 75.496094 0.132812 L 387.949219 0.132812 C 429.371094 0.132812 462.949219 33.710938 462.949219 75.132812 L 462.949219 853.363281 C 462.949219 894.785156 429.371094 928.363281 387.949219 928.363281 L 75.496094 928.363281 C 34.074219 928.363281 0.496094 894.785156 0.496094 853.363281 L 0.496094 75.132812 C 0.496094 33.710938 34.074219 0.132812 75.496094 0.132812 Z M 75.496094 0.132812 " clip-rule="nonzero"/></clipPath><clipPath id="d546215f7e"><rect x="0" width="463" y="0" height="929"/></clipPath><clipPath id="fde5e137f6"><rect x="0" width="1450" y="0" height="1436"/></clipPath><clipPath id="a7f3110672"><path d="M 577.777344 593.902344 L 922.363281 593.902344 L 922.363281 1410.953125 L 577.777344 1410.953125 Z M 577.777344 593.902344 " clip-rule="nonzero"/></clipPath><clipPath id="f625d6ce67"><path d="M 652.777344 593.902344 L 847.363281 593.902344 C 867.257812 593.902344 886.332031 601.804688 900.398438 615.871094 C 914.460938 629.933594 922.363281 649.011719 922.363281 668.902344 L 922.363281 1335.59375 C 922.363281 1355.484375 914.460938 1374.558594 900.398438 1388.625 C 886.332031 1402.691406 867.257812 1410.59375 847.363281 1410.59375 L 652.777344 1410.59375 C 632.886719 1410.59375 613.808594 1402.691406 599.742188 1388.625 C 585.679688 1374.558594 577.777344 1355.484375 577.777344 1335.59375 L 577.777344 668.902344 C 577.777344 649.011719 585.679688 629.933594 599.742188 615.871094 C 613.808594 601.804688 632.886719 593.902344 652.777344 593.902344 Z M 652.777344 593.902344 " clip-rule="nonzero"/></clipPath><clipPath id="3d5733955f"><path d="M 0.777344 0.902344 L 345.363281 0.902344 L 345.363281 817.71875 L 0.777344 817.71875 Z M 0.777344 0.902344 " clip-rule="nonzero"/></clipPath><clipPath id="19a39229e7"><path d="M 75.777344 0.902344 L 270.363281 0.902344 C 290.257812 0.902344 309.332031 8.804688 323.398438 22.871094 C 337.460938 36.933594 345.363281 56.011719 345.363281 75.902344 L 345.363281 742.59375 C 345.363281 762.484375 337.460938 781.558594 323.398438 795.625 C 309.332031 809.691406 290.257812 817.59375 270.363281 817.59375 L 75.777344 817.59375 C 55.886719 817.59375 36.808594 809.691406 22.742188 795.625 C 8.679688 781.558594 0.777344 762.484375 0.777344 742.59375 L 0.777344 75.902344 C 0.777344 56.011719 8.679688 36.933594 22.742188 22.871094 C 36.808594 8.804688 55.886719 0.902344 75.777344 0.902344 Z M 75.777344 0.902344 " clip-rule="nonzero"/></clipPath><clipPath id="4554360671"><rect x="0" width="346" y="0" height="818"/></clipPath><clipPath id="d33c597619"><path d="M 1070.289062 593.902344 L 1414.875 593.902344 L 1414.875 1410.953125 L 1070.289062 1410.953125 Z M 1070.289062 593.902344 " clip-rule="nonzero"/></clipPath><clipPath id="5848fbca33"><path d="M 1145.289062 593.902344 L 1339.875 593.902344 C 1359.765625 593.902344 1378.84375 601.804688 1392.910156 615.871094 C 1406.972656 629.933594 1414.875 649.011719 1414.875 668.902344 L 1414.875 1335.59375 C 1414.875 1355.484375 1406.972656 1374.558594 1392.910156 1388.625 C 1378.84375 1402.691406 1359.765625 1410.59375 1339.875 1410.59375 L 1145.289062 1410.59375 C 1125.398438 1410.59375 1106.320312 1402.691406 1092.253906 1388.625 C 1078.191406 1374.558594 1070.289062 1355.484375 1070.289062 1335.59375 L 1070.289062 668.902344 C 1070.289062 649.011719 1078.191406 629.933594 1092.253906 615.871094 C 1106.320312 601.804688 1125.398438 593.902344 1145.289062 593.902344 Z M 1145.289062 593.902344 " clip-rule="nonzero"/></clipPath><clipPath id="e83c7ad044"><path d="M 0.289062 0.902344 L 344.875 0.902344 L 344.875 817.71875 L 0.289062 817.71875 Z M 0.289062 0.902344 " clip-rule="nonzero"/></clipPath><clipPath id="06f9e9bd38"><path d="M 75.289062 0.902344 L 269.875 0.902344 C 289.765625 0.902344 308.84375 8.804688 322.910156 22.871094 C 336.972656 36.933594 344.875 56.011719 344.875 75.902344 L 344.875 742.59375 C 344.875 762.484375 336.972656 781.558594 322.910156 795.625 C 308.84375 809.691406 289.765625 817.59375 269.875 817.59375 L 75.289062 817.59375 C 55.398438 817.59375 36.320312 809.691406 22.253906 795.625 C 8.191406 781.558594 0.289062 762.484375 0.289062 742.59375 L 0.289062 75.902344 C 0.289062 56.011719 8.191406 36.933594 22.253906 22.871094 C 36.320312 8.804688 55.398438 0.902344 75.289062 0.902344 Z M 75.289062 0.902344 " clip-rule="nonzero"/></clipPath><clipPath id="939c7277ba"><rect x="0" width="345" y="0" height="818"/></clipPath><clipPath id="e509da46bc"><path d="M 84.984375 93.71875 L 429.570312 93.71875 L 429.570312 1411 L 84.984375 1411 Z M 84.984375 93.71875 " clip-rule="nonzero"/></clipPath><clipPath id="ca615cc932"><path d="M 159.984375 93.71875 L 354.570312 93.71875 C 374.460938 93.71875 393.539062 101.621094 407.605469 115.6875 C 421.667969 129.753906 429.570312 148.828125 429.570312 168.71875 L 429.570312 1335.59375 C 429.570312 1355.484375 421.667969 1374.558594 407.605469 1388.625 C 393.539062 1402.691406 374.460938 1410.59375 354.570312 1410.59375 L 159.984375 1410.59375 C 140.089844 1410.59375 121.015625 1402.691406 106.949219 1388.625 C 92.882812 1374.558594 84.984375 1355.484375 84.984375 1335.59375 L 84.984375 168.71875 C 84.984375 148.828125 92.882812 129.753906 106.949219 115.6875 C 121.015625 101.621094 140.089844 93.71875 159.984375 93.71875 Z M 159.984375 93.71875 " clip-rule="nonzero"/></clipPath><clipPath id="44b4e3491e"><path d="M 0.984375 0.71875 L 345.570312 0.71875 L 345.570312 1317.71875 L 0.984375 1317.71875 Z M 0.984375 0.71875 " clip-rule="nonzero"/></clipPath><clipPath id="6fa91dc5a2"><path d="M 75.984375 0.71875 L 270.570312 0.71875 C 290.460938 0.71875 309.539062 8.621094 323.605469 22.6875 C 337.667969 36.753906 345.570312 55.828125 345.570312 75.71875 L 345.570312 1242.59375 C 345.570312 1262.484375 337.667969 1281.558594 323.605469 1295.625 C 309.539062 1309.691406 290.460938 1317.59375 270.570312 1317.59375 L 75.984375 1317.59375 C 56.089844 1317.59375 37.015625 1309.691406 22.949219 1295.625 C 8.882812 1281.558594 0.984375 1262.484375 0.984375 1242.59375 L 0.984375 75.71875 C 0.984375 55.828125 8.882812 36.753906 22.949219 22.6875 C 37.015625 8.621094 56.089844 0.71875 75.984375 0.71875 Z M 75.984375 0.71875 " clip-rule="nonzero"/></clipPath><clipPath id="6f3f51431f"><rect x="0" width="346" y="0" height="1318"/></clipPath><clipPath id="36287ac0bf"><path d="M 84 93.714844 L 1414.785156 93.714844 L 1414.785156 446 L 84 446 Z M 84 93.714844 " clip-rule="nonzero"/></clipPath><clipPath id="d2d98c1abf"><path d="M 84.988281 370.03125 L 84.988281 168.714844 C 84.988281 148.820312 92.886719 129.746094 106.953125 115.679688 C 121.019531 101.613281 140.09375 93.714844 159.988281 93.714844 L 1339.242188 93.714844 C 1359.136719 93.714844 1378.210938 101.613281 1392.277344 115.679688 C 1406.339844 129.746094 1414.242188 148.820312 1414.242188 168.714844 L 1414.242188 370.03125 C 1414.242188 389.921875 1406.339844 409 1392.277344 423.066406 C 1378.210938 437.128906 1359.136719 445.03125 1339.242188 445.03125 L 159.988281 445.03125 C 140.09375 445.03125 121.019531 437.128906 106.953125 423.066406 C 92.886719 409 84.988281 389.921875 84.988281 370.03125 Z M 84.988281 370.03125 " clip-rule="nonzero"/></clipPath><clipPath id="5e4dd24e00"><path d="M 0.960938 0.714844 L 1330.320312 0.714844 L 1330.320312 352.199219 L 0.960938 352.199219 Z M 0.960938 0.714844 " clip-rule="nonzero"/></clipPath><clipPath id="531dc4b9cd"><path d="M 0.988281 277.03125 L 0.988281 75.714844 C 0.988281 55.820312 8.886719 36.746094 22.953125 22.679688 C 37.019531 8.613281 56.09375 0.714844 75.988281 0.714844 L 1255.242188 0.714844 C 1275.136719 0.714844 1294.210938 8.613281 1308.277344 22.679688 C 1322.339844 36.746094 1330.242188 55.820312 1330.242188 75.714844 L 1330.242188 277.03125 C 1330.242188 296.921875 1322.339844 316 1308.277344 330.066406 C 1294.210938 344.128906 1275.136719 352.03125 1255.242188 352.03125 L 75.988281 352.03125 C 56.09375 352.03125 37.019531 344.128906 22.953125 330.066406 C 8.886719 316 0.988281 296.921875 0.988281 277.03125 Z M 0.988281 277.03125 " clip-rule="nonzero"/></clipPath><clipPath id="941c1feb71"><rect x="0" width="1331" y="0" height="353"/></clipPath></defs><g clip-path="url(#7f9b310c63)"><g clip-path="url(#d5c033ff41)"><g transform="matrix(1, 0, 0, 1, 26, 33)"><g clip-path="url(#f188bc0892)"><g clip-path="url(#76deef5ca5)"><g clip-path="url(#11d44712c5)"><path fill="#a51c30" d="M 0.0507812 0.636719 L 462.503906 0.636719 L 462.503906 1433.15625 L 0.0507812 1433.15625 Z M 0.0507812 0.636719 " fill-opacity="1" fill-rule="nonzero"/></g></g></g></g></g></g><g clip-path="url(#41a16bc5de)"><g clip-path="url(#8b31de2389)"><g transform="matrix(1, 0, 0, 1, 26, 33)"><g clip-path="url(#c7a6650230)"><g clip-path="url(#bdc2e69b7e)"><g clip-path="url(#97023c3365)"><path fill="#a51c30" d="M 0.0546875 472.113281 L 0.0546875 0.628906 L 1447.660156 0.628906 L 1447.660156 472.113281 Z M 0.0546875 472.113281 " fill-opacity="1" fill-rule="nonzero"/></g></g></g></g></g></g><g clip-path="url(#42de27cd17)"><g clip-path="url(#d3704c8f2a)"><g transform="matrix(1, 0, 0, 1, 518, 538)"><g clip-path="url(#94ed194843)"><g clip-path="url(#d04435698c)"><g clip-path="url(#17a3d3205b)"><path fill="#a51c30" d="M 0.84375 0.132812 L 463.296875 0.132812 L 463.296875 928.648438 L 0.84375 928.648438 Z M 0.84375 0.132812 " fill-opacity="1" fill-rule="nonzero"/></g></g></g></g></g></g><g clip-path="url(#8e805bf52b)"><g clip-path="url(#5e5f4780e1)"><g transform="matrix(1, 0, 0, 1, 1011, 538)"><g clip-path="url(#22ef45da99)"><g clip-path="url(#c22a8c9be0)"><g clip-path="url(#98066ee2a8)"><path fill="#a51c30" d="M 0.355469 0.132812 L 462.808594 0.132812 L 462.808594 928.648438 L 0.355469 928.648438 Z M 0.355469 0.132812 " fill-opacity="1" fill-rule="nonzero"/></g></g></g></g></g></g><g transform="matrix(1, 0, 0, 1, 26, 33)"><g clip-path="url(#fde5e137f6)"><g clip-path="url(#29f35afe95)"><g clip-path="url(#b42a1b8403)"><g transform="matrix(1, 0, 0, 1, -0.000000000000003553, 0.000000000000113687)"><g clip-path="url(#3b0a584111)"><g clip-path="url(#482070884c)"><g clip-path="url(#bf922010e4)"><path fill="#a51c30" d="M 0.191406 0.636719 L 462.644531 0.636719 L 462.644531 1433.15625 L 0.191406 1433.15625 Z M 0.191406 0.636719 " fill-opacity="1" fill-rule="nonzero"/></g></g></g></g></g></g><g clip-path="url(#2c931588e4)"><g clip-path="url(#7ed697cb90)"><g transform="matrix(1, 0, 0, 1, -0.000000000000003553, 0.000000000000113687)"><g clip-path="url(#414eaac871)"><g clip-path="url(#e53d6bf94e)"><g clip-path="url(#f9440b74f6)"><path fill="#a51c30" d="M 0.195312 472.121094 L 0.195312 0.632812 L 1447.800781 0.632812 L 1447.800781 472.121094 Z M 0.195312 472.121094 " fill-opacity="1" fill-rule="nonzero"/></g></g></g></g></g></g><g clip-path="url(#34c10833f1)"><g clip-path="url(#1d3e25c0d6)"><g transform="matrix(1, 0, 0, 1, 492, 505)"><g clip-path="url(#f2fd6161e9)"><g clip-path="url(#f163fb8d6f)"><g clip-path="url(#eefd1ca532)"><path fill="#a51c30" d="M 0.984375 0.132812 L 463.4375 0.132812 L 463.4375 928.648438 L 0.984375 928.648438 Z M 0.984375 0.132812 " fill-opacity="1" fill-rule="nonzero"/></g></g></g></g></g></g><g clip-path="url(#f038bc59a7)"><g clip-path="url(#17d4ad5350)"><g transform="matrix(1, 0, 0, 1, 985, 505)"><g clip-path="url(#d546215f7e)"><g clip-path="url(#018340af0d)"><g clip-path="url(#08e54552d6)"><path fill="#a51c30" d="M 0.496094 0.132812 L 462.949219 0.132812 L 462.949219 928.648438 L 0.496094 928.648438 Z M 0.496094 0.132812 " fill-opacity="1" fill-rule="nonzero"/></g></g></g></g></g></g></g></g><g clip-path="url(#a7f3110672)"><g clip-path="url(#f625d6ce67)"><g transform="matrix(1, 0, 0, 1, 577, 593)"><g clip-path="url(#4554360671)"><g clip-path="url(#3d5733955f)"><g clip-path="url(#19a39229e7)"><path fill="#ffffff" d="M 0.777344 0.902344 L 345.363281 0.902344 L 345.363281 817.953125 L 0.777344 817.953125 Z M 0.777344 0.902344 " fill-opacity="1" fill-rule="nonzero"/></g></g></g></g></g></g><g clip-path="url(#d33c597619)"><g clip-path="url(#5848fbca33)"><g transform="matrix(1, 0, 0, 1, 1070, 593)"><g clip-path="url(#939c7277ba)"><g clip-path="url(#e83c7ad044)"><g clip-path="url(#06f9e9bd38)"><path fill="#ffffff" d="M 0.289062 0.902344 L 344.875 0.902344 L 344.875 817.953125 L 0.289062 817.953125 Z M 0.289062 0.902344 " fill-opacity="1" fill-rule="nonzero"/></g></g></g></g></g></g><g clip-path="url(#e509da46bc)"><g clip-path="url(#ca615cc932)"><g transform="matrix(1, 0, 0, 1, 84, 93)"><g clip-path="url(#6f3f51431f)"><g clip-path="url(#44b4e3491e)"><g clip-path="url(#6fa91dc5a2)"><path fill="#ffffff" d="M 0.984375 0.71875 L 345.570312 0.71875 L 345.570312 1317.15625 L 0.984375 1317.15625 Z M 0.984375 0.71875 " fill-opacity="1" fill-rule="nonzero"/></g></g></g></g></g></g><g clip-path="url(#36287ac0bf)"><g clip-path="url(#d2d98c1abf)"><g transform="matrix(1, 0, 0, 1, 84, 93)"><g clip-path="url(#941c1feb71)"><g clip-path="url(#5e4dd24e00)"><g clip-path="url(#531dc4b9cd)"><path fill="#ffffff" d="M 0.988281 352.03125 L 0.988281 0.714844 L 1330.785156 0.714844 L 1330.785156 352.03125 Z M 0.988281 352.03125 " fill-opacity="1" fill-rule="nonzero"/></g></g></g></g></g></g></svg>