<svg xmlns="http://www.w3.org/2000/svg" xmlns:xlink="http://www.w3.org/1999/xlink" width="2000" zoomAndPan="magnify" viewBox="0 0 1500 1499.999933" height="2000" preserveAspectRatio="xMidYMid meet" version="1.0"><path fill="#a51c30" d="M 676.113281 1106.945312 L 819.34375 1106.945312 L 819.34375 820.480469 L 1105.808594 820.480469 L 1105.808594 677.246094 L 819.34375 677.246094 L 819.34375 390.78125 L 676.113281 390.78125 L 676.113281 677.246094 L 389.648438 677.246094 L 389.648438 820.480469 L 676.113281 820.480469 Z M 747.730469 1465.027344 C 648.660156 1465.027344 555.558594 1446.226562 468.425781 1408.628906 C 381.292969 1371.03125 305.5 1320.003906 241.042969 1255.546875 C 176.589844 1191.09375 125.5625 1115.300781 87.964844 1028.167969 C 50.367188 941.035156 31.566406 847.933594 31.566406 748.863281 C 31.566406 649.792969 50.367188 556.695312 87.964844 469.5625 C 125.5625 382.425781 176.589844 306.632812 241.042969 242.179688 C 305.5 177.722656 381.292969 126.699219 468.425781 89.097656 C 555.558594 51.5 648.660156 32.703125 747.730469 32.703125 C 846.796875 32.703125 939.898438 51.5 1027.03125 89.097656 C 1114.164062 126.699219 1189.957031 177.722656 1254.414062 242.179688 C 1318.867188 306.632812 1369.894531 382.425781 1407.492188 469.5625 C 1445.089844 556.695312 1463.890625 649.792969 1463.890625 748.863281 C 1463.890625 847.933594 1445.089844 941.035156 1407.492188 1028.167969 C 1369.894531 1115.300781 1318.867188 1191.09375 1254.414062 1255.546875 C 1189.957031 1320.003906 1114.164062 1371.03125 1027.03125 1408.628906 C 939.898438 1446.226562 846.796875 1465.027344 747.730469 1465.027344 Z M 747.730469 1321.792969 C 907.671875 1321.792969 1043.144531 1266.289062 1154.152344 1155.285156 C 1265.15625 1044.28125 1320.660156 908.808594 1320.660156 748.863281 C 1320.660156 588.921875 1265.15625 453.445312 1154.152344 342.441406 C 1043.144531 231.4375 907.671875 175.933594 747.730469 175.933594 C 587.785156 175.933594 452.3125 231.4375 341.308594 342.441406 C 230.300781 453.445312 174.800781 588.921875 174.800781 748.863281 C 174.800781 908.808594 230.300781 1044.28125 341.308594 1155.285156 C 452.3125 1266.289062 587.785156 1321.792969 747.730469 1321.792969 Z M 747.730469 748.863281 Z M 747.730469 748.863281 " fill-opacity="1" fill-rule="nonzero"/></svg>