<svg xmlns="http://www.w3.org/2000/svg" xmlns:xlink="http://www.w3.org/1999/xlink" width="2000" zoomAndPan="magnify" viewBox="0 0 1500 1499.999933" height="2000" preserveAspectRatio="xMidYMid meet" version="1.0"><path fill="#a51c30" d="M 1354.242188 1465.550781 L 853.355469 964.664062 C 813.601562 996.464844 767.886719 1021.640625 716.207031 1040.195312 C 664.527344 1058.746094 609.539062 1068.019531 551.234375 1068.019531 C 406.796875 1068.019531 284.558594 1018 184.511719 917.953125 C 84.46875 817.910156 34.445312 695.667969 34.445312 551.234375 C 34.445312 406.796875 84.46875 284.558594 184.511719 184.511719 C 284.558594 84.46875 406.796875 34.445312 551.234375 34.445312 C 695.667969 34.445312 817.910156 84.46875 917.953125 184.511719 C 1018 284.558594 1068.019531 406.796875 1068.019531 551.234375 C 1068.019531 609.535156 1058.746094 664.527344 1040.195312 716.207031 C 1021.640625 767.886719 996.464844 813.601562 964.664062 853.355469 L 1465.550781 1354.242188 Z M 551.234375 909.007812 C 650.613281 909.007812 735.089844 874.226562 804.65625 804.65625 C 874.226562 735.089844 909.007812 650.613281 909.007812 551.234375 C 909.007812 451.851562 874.226562 367.375 804.65625 297.808594 C 735.089844 228.242188 650.613281 193.457031 551.234375 193.457031 C 451.851562 193.457031 367.375 228.242188 297.808594 297.808594 C 228.242188 367.375 193.457031 451.851562 193.457031 551.234375 C 193.457031 650.613281 228.242188 735.089844 297.808594 804.65625 C 367.375 874.226562 451.851562 909.007812 551.234375 909.007812 Z M 551.234375 909.007812 " fill-opacity="1" fill-rule="nonzero"/></svg>