<svg xmlns="http://www.w3.org/2000/svg" xmlns:xlink="http://www.w3.org/1999/xlink" width="2000" zoomAndPan="magnify" viewBox="0 0 1500 1499.999933" height="2000" preserveAspectRatio="xMidYMid meet" version="1.0"><path fill="#a51c30" d="M 757.269531 1437.050781 C 567.179688 1437.050781 406.363281 1407.78125 274.8125 1349.246094 C 143.261719 1290.707031 77.488281 1219.269531 77.488281 1134.925781 L 77.488281 379.613281 C 77.488281 296.527344 143.890625 225.402344 276.699219 166.238281 C 409.511719 107.070312 569.699219 77.488281 757.269531 77.488281 C 944.835938 77.488281 1105.027344 107.070312 1237.835938 166.238281 C 1370.644531 225.402344 1437.050781 296.527344 1437.050781 379.613281 L 1437.050781 1134.925781 C 1437.050781 1219.269531 1371.273438 1290.707031 1239.722656 1349.246094 C 1108.175781 1407.78125 947.355469 1437.050781 757.269531 1437.050781 Z M 757.269531 521.234375 C 866.789062 521.234375 978.40625 504.761719 1092.117188 471.816406 C 1205.84375 438.886719 1275.921875 402.484375 1302.359375 362.617188 C 1275.078125 323.59375 1204.683594 287.292969 1091.171875 253.71875 C 977.675781 220.160156 866.375 203.378906 757.269531 203.378906 C 645.230469 203.378906 533.507812 219.636719 422.097656 252.152344 C 310.691406 284.667969 240.300781 321.492188 210.933594 362.617188 C 240.300781 404.574219 310.269531 441.503906 420.832031 473.402344 C 531.410156 505.289062 643.554688 521.234375 757.269531 521.234375 Z M 756.003906 915.882812 C 808.875 915.882812 861.117188 913.160156 912.730469 907.707031 C 964.34375 902.246094 1013.753906 894.164062 1060.960938 883.460938 C 1108.167969 872.761719 1153.070312 859.652344 1195.671875 844.128906 C 1238.257812 828.609375 1276.753906 811.191406 1311.15625 791.878906 L 1311.15625 521.234375 C 1275.910156 540.53125 1236.992188 557.949219 1194.40625 573.480469 C 1151.816406 589.003906 1106.707031 602.113281 1059.070312 612.816406 C 1011.449219 623.515625 962.253906 631.804688 911.484375 637.683594 C 860.703125 643.550781 808.875 646.484375 756.003906 646.484375 C 703.132812 646.484375 650.679688 643.550781 598.652344 637.683594 C 546.625 631.804688 497.007812 623.515625 449.800781 612.816406 C 402.59375 602.113281 358.003906 589.003906 316.035156 573.480469 C 274.074219 557.949219 236.523438 540.53125 203.378906 521.234375 L 203.378906 791.878906 C 236.523438 811.191406 273.867188 828.609375 315.410156 844.128906 C 356.953125 859.652344 401.328125 872.761719 448.535156 883.460938 C 495.742188 894.164062 545.359375 902.246094 597.386719 907.707031 C 649.429688 913.160156 702.300781 915.882812 756.003906 915.882812 Z M 757.269531 1311.15625 C 816.851562 1311.15625 878.011719 1306.121094 940.753906 1296.050781 C 1003.480469 1285.980469 1061.074219 1272.660156 1113.53125 1256.09375 C 1165.972656 1239.515625 1210.242188 1221.050781 1246.332031 1200.691406 C 1282.425781 1180.351562 1304.03125 1159.476562 1311.15625 1138.078125 L 1311.15625 919.039062 C 1276.753906 938.335938 1238.257812 955.539062 1195.671875 970.644531 C 1153.070312 985.75 1108.167969 998.652344 1060.960938 1009.355469 C 1013.753906 1020.054688 964.558594 1028.128906 913.371094 1033.582031 C 862.175781 1039.042969 809.71875 1041.777344 756.003906 1041.777344 C 702.300781 1041.777344 649.429688 1039.042969 597.386719 1033.582031 C 545.359375 1028.128906 495.742188 1020.054688 448.535156 1009.355469 C 401.328125 998.652344 356.953125 985.75 315.410156 970.644531 C 273.867188 955.539062 236.523438 938.335938 203.378906 919.039062 L 203.378906 1139.964844 C 209.671875 1160.523438 230.546875 1181.082031 265.996094 1201.636719 C 301.457031 1222.207031 345.625 1240.566406 398.496094 1256.71875 C 451.367188 1272.871094 509.273438 1285.980469 572.21875 1296.050781 C 635.160156 1306.121094 696.84375 1311.15625 757.269531 1311.15625 Z M 757.269531 1311.15625 " fill-opacity="1" fill-rule="nonzero"/></svg>