<svg xmlns="http://www.w3.org/2000/svg" xmlns:xlink="http://www.w3.org/1999/xlink" width="2000" zoomAndPan="magnify" viewBox="0 0 1500 1499.999933" height="2000" preserveAspectRatio="xMidYMid meet" version="1.0"><path fill="#a51c30" d="M 552.023438 1471.046875 L 523.226562 1240.675781 C 507.628906 1234.675781 492.929688 1227.476562 479.132812 1219.078125 C 465.335938 1210.679688 451.835938 1201.679688 438.636719 1192.082031 L 224.464844 1282.070312 L 26.492188 940.113281 L 211.867188 799.734375 C 210.667969 791.335938 210.066406 783.234375 210.066406 775.4375 L 210.066406 726.84375 C 210.066406 719.042969 210.667969 710.945312 211.867188 702.546875 L 26.492188 562.164062 L 224.464844 220.207031 L 438.636719 310.195312 C 451.835938 300.597656 465.636719 291.597656 480.035156 283.199219 C 494.429688 274.800781 508.828125 267.601562 523.226562 261.601562 L 552.023438 31.230469 L 947.972656 31.230469 L 976.769531 261.601562 C 992.367188 267.601562 1007.066406 274.800781 1020.863281 283.199219 C 1034.660156 291.597656 1048.160156 300.597656 1061.359375 310.195312 L 1275.53125 220.207031 L 1473.503906 562.164062 L 1288.128906 702.546875 C 1289.328125 710.945312 1289.929688 719.042969 1289.929688 726.84375 L 1289.929688 775.4375 C 1289.929688 783.234375 1288.730469 791.335938 1286.328125 799.734375 L 1471.707031 940.113281 L 1273.730469 1282.070312 L 1061.359375 1192.082031 C 1048.160156 1201.679688 1034.363281 1210.679688 1019.964844 1219.078125 C 1005.566406 1227.476562 991.167969 1234.675781 976.769531 1240.675781 L 947.972656 1471.046875 Z M 678.007812 1327.066406 L 820.1875 1327.066406 L 845.386719 1136.289062 C 882.582031 1126.691406 917.078125 1112.59375 948.871094 1093.996094 C 980.667969 1075.398438 1009.765625 1052.902344 1036.160156 1026.503906 L 1214.339844 1100.292969 L 1284.53125 977.910156 L 1129.75 860.925781 C 1135.75 844.128906 1139.949219 826.429688 1142.347656 807.832031 C 1144.746094 789.234375 1145.949219 770.335938 1145.949219 751.140625 C 1145.949219 731.941406 1144.746094 713.042969 1142.347656 694.445312 C 1139.949219 675.847656 1135.75 658.152344 1129.75 641.355469 L 1284.53125 524.367188 L 1214.339844 401.984375 L 1036.160156 477.574219 C 1009.765625 449.976562 980.667969 426.882812 948.871094 408.285156 C 917.078125 389.6875 882.582031 375.589844 845.386719 365.988281 L 821.988281 175.214844 L 679.808594 175.214844 L 654.609375 365.988281 C 617.414062 375.589844 582.921875 389.6875 551.125 408.285156 C 519.328125 426.882812 490.230469 449.378906 463.835938 475.773438 L 285.660156 401.984375 L 215.46875 524.367188 L 370.246094 639.554688 C 364.25 657.550781 360.046875 675.550781 357.648438 693.546875 C 355.25 711.542969 354.050781 730.742188 354.050781 751.140625 C 354.050781 770.335938 355.25 788.933594 357.648438 806.933594 C 360.046875 824.929688 364.25 842.925781 370.246094 860.925781 L 215.46875 977.910156 L 285.660156 1100.292969 L 463.835938 1024.703125 C 490.230469 1052.300781 519.328125 1075.398438 551.125 1093.996094 C 582.921875 1112.59375 617.414062 1126.691406 654.609375 1136.289062 Z M 753.597656 1003.105469 C 823.1875 1003.105469 882.582031 978.511719 931.773438 929.316406 C 980.96875 880.121094 1005.566406 820.730469 1005.566406 751.140625 C 1005.566406 681.546875 980.96875 622.15625 931.773438 572.960938 C 882.582031 523.769531 823.1875 499.171875 753.597656 499.171875 C 682.808594 499.171875 623.113281 523.769531 574.519531 572.960938 C 525.925781 622.15625 501.628906 681.546875 501.628906 751.140625 C 501.628906 820.730469 525.925781 880.121094 574.519531 929.316406 C 623.113281 978.511719 682.808594 1003.105469 753.597656 1003.105469 Z M 750 751.140625 Z M 750 751.140625 " fill-opacity="1" fill-rule="nonzero"/></svg>