<svg xmlns="http://www.w3.org/2000/svg" xmlns:xlink="http://www.w3.org/1999/xlink" width="2000" zoomAndPan="magnify" viewBox="0 0 1500 1499.999933" height="2000" preserveAspectRatio="xMidYMid meet" version="1.0"><path fill="#a51c30" d="M 187.550781 1476.433594 C 143.15625 1476.433594 105.152344 1460.628906 73.539062 1429.015625 C 41.925781 1397.402344 26.117188 1359.398438 26.117188 1315.003906 L 26.117188 184.992188 C 26.117188 140.597656 41.925781 102.59375 73.539062 70.980469 C 105.152344 39.367188 143.15625 23.558594 187.550781 23.558594 L 1317.5625 23.558594 C 1361.957031 23.558594 1399.960938 39.367188 1431.574219 70.980469 C 1463.1875 102.59375 1478.996094 140.597656 1478.996094 184.992188 L 1478.996094 1315.003906 C 1478.996094 1359.398438 1463.1875 1397.402344 1431.574219 1429.015625 C 1399.960938 1460.628906 1361.957031 1476.433594 1317.5625 1476.433594 Z M 752.554688 1315.003906 L 1317.5625 1315.003906 L 1317.5625 184.992188 L 752.554688 184.992188 Z M 752.554688 1315.003906 " fill-opacity="1" fill-rule="nonzero"/></svg>